<?xml version="1.0"?>
<svg version="1.1" xmlns="http://www.w3.org/2000/svg" width="400" height="200" style="border: dashed 2px #aaa"><path fill="#61c732" d="M16.99951171875,127.16796875q0.1904296875-5.1416015625,0.333251953125-10.537109375t0.269775390625-10.648193359375t0.1904296875-10.203857421875t0.0634765625-9.23583984375q0.0634765625-0.85693359375,1.49169921875-1.36474609375t3.411865234375-0.745849609375t4.189453125-0.301513671875t3.919677734375-0.0634765625q0.380859375,0,1.5869140625-0.03173828125l0.60302734375,0q0.92041015625,0,1.93603515625,0.0634765625q1.3330078125,0.09521484375,2.332763671875,0.41259765625t0.999755859375,0.92041015625q0,0.4443359375-0.34912109375,0.714111328125t-0.809326171875,0.396728515625t-0.9521484375,0.15869140625t-0.682373046875,0.03173828125q-2.9833984375,0-5.9033203125-0.09521484375q-0.79345703125-0.03173828125-1.61865234375-0.03173828125q-2.158203125,0-4.3798828125,0.1904296875q0.126953125,0.380859375,0.206298828125,2.301025390625t0.079345703125,4.332275390625t-0.03173828125,4.713134765625t0,3.538818359375l0,8.251953125q0.98388671875-0.0634765625,1.93603515625-0.0634765625l1.904296875,0l1.26953125-0.0634765625q0.634765625-0.03173828125,1.3330078125-0.03173828125q0.72998046875,0,1.49169921875,0.03173828125q1.5234375,0.0634765625,2.777099609375,0.364990234375t1.253662109375,1.063232421875q0,0.5712890625-0.47607421875,0.841064453125t-1.063232421875,0.396728515625t-1.11083984375,0.126953125l-0.587158203125,0q-1.80908203125,0-3.760986328125-0.126953125t-3.634033203125-0.126953125q-0.3173828125,0.126953125-0.682373046875,0.09521484375t-0.650634765625-0.03173828125q0,4.7607421875-0.09521484375,9.473876953125t-0.22216796875,9.378662109375q0,0.92041015625-1.158447265625,1.2060546875t-2.205810546875,0.28564453125q-1.17431640625,0-1.856689453125-0.28564453125t-0.968017578125-0.936279296875t-0.34912109375-1.729736328125q-0.03173828125-0.60302734375-0.0634765625-1.3330078125q0-0.60302734375,0.03173828125-1.30126953125z M42.887475585938,120.66162109375q0-2.158203125,0.587158203125-4.15771484375t1.761474609375-3.570556640625t2.935791015625-2.50732421875t4.078369140625-0.936279296875q1.42822265625,0,3.157958984375,0.428466796875t3.253173828125,1.26953125t2.5390625,2.142333984375t1.015625,2.9833984375q0,0.79345703125-0.269775390625,1.2060546875t-1.094970703125,0.41259765625l-0.34912109375-0.0634765625q0.92041015625,2.4755859375,1.5869140625,5.078125t1.30126953125,5.205078125q0.25390625,0.5078125,0.380859375,0.904541015625t0.126953125,0.777587890625q0,0.5078125-0.28564453125,0.841064453125t-0.745849609375,0.491943359375t-0.9521484375,0.22216796875t-0.872802734375,0.0634765625q-1.36474609375,0-2.047119140625-0.47607421875t-0.98388671875-1.30126953125t-0.364990234375-1.856689453125t-0.25390625-2.078857421875q-0.380859375,1.23779296875-0.999755859375,2.412109375t-1.4599609375,2.110595703125t-1.983642578125,1.49169921875t-2.57080078125,0.555419921875q-2.0947265625,0-3.52294921875-1.2060546875t-2.301025390625-2.967529296875t-1.26953125-3.760986328125t-0.396728515625-3.71337890625z M47.394311523438,120.21728515625q0,1.17431640625,0.15869140625,2.4755859375t0.523681640625,2.57080078125t0.936279296875,2.396240234375t1.42822265625,1.983642578125q1.55517578125-1.68212890625,2.301025390625-4.09423828125t1.3330078125-4.649658203125t1.3330078125-3.84033203125t2.301025390625-1.602783203125q0.98388671875,0,1.650390625,0.34912109375q-0.3173828125-0.79345703125-1.04736328125-1.539306640625t-1.634521484375-1.36474609375t-1.87255859375-1.015625t-1.824951171875-0.396728515625q-0.25390625,0-0.587158203125,0.079345703125t-0.523681640625,0.015869140625q-1.30126953125,0.380859375-2.142333984375,1.317138671875t-1.36474609375,2.205810546875t-0.745849609375,2.6025390625t-0.22216796875,2.50732421875z M70.394091796875,133.54736328125l0.66650390625-0.79345703125q-0.126953125-5.33203125-0.28564453125-10.63232421875t-0.15869140625-10.537109375q0-6.50634765625,0.777587890625-12.584228515625t1.539306640625-12.457275390625q0.0634765625-0.380859375,0.364990234375-0.618896484375t0.745849609375-0.396728515625t0.904541015625-0.22216796875t0.841064453125-0.0634765625q0.5078125,0,1.26953125,0.1904296875t1.5234375,1.11083984375q0,0.3173828125,0.047607421875,0.555419921875t0.047607421875,0.555419921875q0,2.412109375-0.650634765625,5.17333984375t-0.872802734375,5.30029296875q-0.25390625,3.1103515625-0.34912109375,6.1572265625t-0.09521484375,6.18896484375l0.0634765625,2.79296875q0.634765625-0.79345703125,1.80908203125-2.03125t2.5390625-2.396240234375t2.7294921875-1.983642578125t2.4755859375-0.8251953125q1.68212890625,0,2.332763671875,0.9521484375t0.650634765625,2.50732421875q0,1.42822265625-0.618896484375,2.9833984375t-1.61865234375,3.031005859375t-2.269287109375,2.650146484375t-2.50732421875,1.74560546875q1.68212890625,2.0947265625,3.443603515625,3.9990234375t3.856201171875,3.58642578125l0,0.72998046875q-0.0634765625,0.3173828125-0.396728515625,0.47607421875t-0.72998046875,0.25390625t-0.777587890625,0.142822265625t-0.634765625,0.047607421875q-1.55517578125,0-2.999267578125-0.92041015625t-2.69775390625-2.25341796875t-2.364501953125-2.82470703125t-2.03125-2.6025390625q0.1904296875,3.64990234375,0.428466796875,7.283935546875t0.238037109375,7.283935546875q0,0.4443359375-0.396728515625,0.745849609375t-0.92041015625,0.460205078125t-1.063232421875,0.22216796875t-0.888671875,0.0634765625q-1.87255859375,0-2.650146484375-0.682373046875t-1.317138671875-2.364501953125z M76.900439453125,118.5986328125q0.79345703125,0,1.888427734375-0.682373046875t2.269287109375-1.697998046875t2.18994140625-2.142333984375t1.634521484375-2.142333984375t0.618896484375-1.634521484375t-0.85693359375-0.555419921875q-0.3173828125,0-1.30126953125,0.92041015625t-2.18994140625,2.25341796875t-2.412109375,2.88818359375t-1.8408203125,2.79296875z M96.091625976563,121.962890625q0-2.2216796875,0.491943359375-5.23681640625t1.666259765625-5.712890625t3.094482421875-4.586181640625t4.840087890625-1.888427734375q2.7294921875,0,4.09423828125,1.571044921875t1.36474609375,4.237060546875q0,1.74560546875-0.650634765625,3.824462890625t-1.856689453125,3.935546875t-2.8564453125,3.094482421875t-3.681640625,1.23779296875l-0.8251953125-0.0634765625q0,0.85693359375,0.25390625,2.301025390625t0.745849609375,2.872314453125t1.26953125,2.50732421875t1.888427734375,1.0791015625q1.61865234375,0,3.1103515625-1.30126953125t2.82470703125-2.88818359375t2.4755859375-2.88818359375t2.0947265625-1.30126953125q0.5078125,0,1.04736328125,0.15869140625t0.60302734375,0.888671875q0,0.4443359375-0.238037109375,0.72998046875t-0.428466796875,0.634765625q-0.98388671875,1.68212890625-2.142333984375,3.20556640625t-2.618408203125,2.76123046875t-3.189697265625,1.951904296875t-3.824462890625,0.714111328125q-2.7294921875,0-4.53857421875-0.968017578125t-2.919921875-2.6025390625t-1.602783203125-3.77685546875t-0.491943359375-4.490966796875z M101.77277832031,119.55078125l0.888671875,0.79345703125q0.634765625,0.5712890625,1.26953125,0.25390625t1.142578125-1.158447265625t0.936279296875-2.078857421875t0.76171875-2.5390625t0.491943359375-2.5390625t0.15869140625-2.06298828125l0-1.0791015625t-0.09521484375-1.142578125t-0.333251953125-0.904541015625t-0.745849609375-0.460205078125q-0.15869140625-0.03173828125-0.28564453125-0.03173828125q-1.0791015625,0-1.8408203125,1.36474609375q-0.8251953125,1.5234375-1.3330078125,3.697509765625t-0.72998046875,4.459228515625t-0.28564453125,3.427734375z M134.98181152344,126.4697265625q0-1.11083984375,0.76171875-1.412353515625t1.650390625-0.301513671875q1.55517578125,0,2.63427734375,1.396484375t2.047119140625,3.062744140625t1.920166015625,3.062744140625t2.25341796875,1.396484375q0.98388671875,0,1.793212890625-0.491943359375t1.396484375-1.23779296875t0.904541015625-1.68212890625t0.3173828125-1.856689453125q0-2.412109375-0.968017578125-4.98291015625t-2.4755859375-5.30029296875t-3.189697265625-5.5859375t-3.173828125-5.80810546875t-2.4755859375-6.014404296875t-0.98388671875-6.173095703125q0-4.66552734375,2.79296875-7.236328125t7.36328125-2.57080078125q1.55517578125,0,3.14208984375,0.4443359375t2.919921875,1.3330078125t2.174072265625,2.18994140625t0.841064453125,3.046875q0,0.5712890625-0.841064453125,0.745849609375t-1.221923828125,0.174560546875q-0.5712890625,0-1.23779296875-0.142822265625t-0.85693359375-0.777587890625t-0.53955078125-1.4599609375t-0.872802734375-1.539306640625t-1.23779296875-1.23779296875t-1.571044921875-0.523681640625q-1.42822265625,0-2.427978515625,0.587158203125t-1.61865234375,1.571044921875t-0.92041015625,2.205810546875t-0.301513671875,2.523193359375q0,3.046875,1.04736328125,6.141357421875t2.6025390625,6.1572265625t3.380126953125,6.046142578125t3.380126953125,5.80810546875t2.6025390625,5.5224609375t1.04736328125,5.10986328125q0,2.158203125-1.015625,3.64990234375t-2.57080078125,2.427978515625t-3.443603515625,1.36474609375t-3.697509765625,0.428466796875q-1.93603515625,0-3.96728515625-0.777587890625t-3.64990234375-2.142333984375t-2.666015625-3.189697265625t-1.04736328125-3.951416015625z M163.53579101562,109.17236328125q0-1.49169921875,0.587158203125-2.205810546875t2.142333984375-0.714111328125q0.92041015625,0,1.729736328125,0.380859375t0.809326171875,1.61865234375q0.126953125,1.80908203125,0.126953125,3.792724609375t0.34912109375,3.760986328125q0.79345703125-1.30126953125,1.793212890625-2.6025390625t2.205810546875-2.31689453125t2.63427734375-1.634521484375t3.1103515625-0.618896484375q2.28515625,0,3.8720703125,0.9521484375t2.618408203125,2.4755859375t1.49169921875,3.443603515625t0.460205078125,3.856201171875q0,2.9833984375-0.904541015625,4.871826171875t-2.396240234375,2.967529296875t-3.380126953125,1.4599609375t-3.792724609375,0.380859375q-1.68212890625,0-3.14208984375-0.650634765625t-2.03125-2.459716796875q0-0.5078125,0.745849609375-0.634765625t1.063232421875-0.126953125q1.04736328125,0,1.55517578125,0.5712890625q0.380859375,0.4443359375,0.841064453125,0.904541015625t0.968017578125,0.460205078125q0.98388671875,0,2.06298828125-0.555419921875t1.983642578125-1.4599609375t1.5234375-2.142333984375t0.618896484375-2.5390625q0-1.11083984375-0.1904296875-2.76123046875t-0.650634765625-3.173828125t-1.26953125-2.63427734375t-2.047119140625-1.11083984375q-1.87255859375,0-3.380126953125,1.7138671875t-2.50732421875,4.1259765625t-1.55517578125,5.0146484375t-0.555419921875,4.34814453125t0.22216796875,4.41162109375t0.460205078125,5.538330078125t0.460205078125,5.538330078125t0.22216796875,4.41162109375q0,0.4443359375-0.364990234375,0.714111328125t-0.872802734375,0.428466796875t-1.031494140625,0.1904296875t-0.777587890625,0.03173828125q-0.85693359375,0-1.793212890625-0.1904296875t-1.285400390625-1.17431640625q-0.4443359375-1.55517578125-0.8251953125-4.427490234375t-0.682373046875-6.34765625t-0.523681640625-7.2998046875t-0.380859375-7.379150390625t-0.238037109375-6.50634765625t-0.079345703125-4.697265625z M193.32756347656,121.2646484375q0-1.80908203125,0.460205078125-3.729248046875t1.4599609375-3.45947265625t2.523193359375-2.50732421875t3.681640625-0.968017578125q1.61865234375,0,3.411865234375,0.555419921875t3.284912109375,1.5869140625t2.427978515625,2.523193359375t0.936279296875,3.33251953125q0,2.2216796875-0.809326171875,4.22119140625t-2.269287109375,3.570556640625t-3.411865234375,2.4755859375t-4.237060546875,0.904541015625q-1.87255859375,0-3.26904296875-0.682373046875t-2.332763671875-1.824951171875t-1.396484375-2.69775390625t-0.460205078125-3.30078125z M197.99309082031,121.201171875q0,0.5712890625,0.174560546875,1.68212890625t0.523681640625,2.174072265625t0.904541015625,1.8408203125t1.348876953125,0.714111328125q1.68212890625-0.1904296875,2.777099609375-1.094970703125t1.77734375-2.205810546875t0.9521484375-2.82470703125t0.269775390625-2.88818359375q0-1.74560546875-0.682373046875-2.919921875t-2.237548828125-1.904296875q0,0.0634765625,0.0634765625,0.0634765625t0.0634765625-0.0634765625l-0.79345703125-0.1904296875q-0.3173828125-0.126953125-0.777587890625-0.28564453125t-0.904541015625-0.6982421875q-1.23779296875,0.4443359375-1.920166015625,1.142578125t-1.031494140625,1.697998046875t-0.428466796875,2.396240234375t-0.079345703125,3.3642578125z M217.37470703125,111.77490234375q0-1.30126953125,0.460205078125-2.18994140625t1.951904296875-0.888671875q0.5712890625,0,1.42822265625,0.174560546875t0.98388671875,0.872802734375q0.3173828125,1.87255859375,0.34912109375,4.0625t0.22216796875,4.1259765625q0.72998046875-1.42822265625,1.87255859375-3.07861328125t2.6025390625-3.046875t3.173828125-2.31689453125t3.4912109375-0.92041015625q0.126953125,0,0.47607421875,0.09521484375t0.650634765625,0.269775390625t0.364990234375,0.396728515625t-0.34912109375,0.41259765625q-0.126953125,0.380859375-0.53955078125,0.460205078125t-0.72998046875,0.079345703125q-0.1904296875,0-0.60302734375-0.15869140625q-2.3486328125,1.23779296875-3.9990234375,3.3642578125t-2.69775390625,4.713134765625t-1.5234375,5.458984375t-0.47607421875,5.601806640625q0,1.36474609375-0.618896484375,1.650390625t-1.983642578125,0.28564453125q-0.72998046875,0-1.539306640625-0.15869140625t-1.126708984375-1.015625q-0.5712890625-1.80908203125-0.936279296875-4.15771484375t-0.555419921875-4.840087890625t-0.269775390625-4.903564453125t-0.079345703125-4.34814453125z M238.62888183594,100.5078125q0-0.4443359375,0.9521484375-0.76171875t2.158203125-0.523681640625t2.332763671875-0.301513671875t1.539306640625-0.15869140625q0-0.85693359375,0.0634765625-1.729736328125t0.34912109375-1.55517578125t0.904541015625-1.094970703125t1.729736328125-0.41259765625q0.92041015625,0,1.396484375,0.22216796875t1.015625,0.92041015625q0.126953125,0.380859375,0.126953125,0.72998046875l0,1.063232421875t-0.0634765625,1.094970703125q1.17431640625-0.126953125,2.332763671875-0.301513671875t2.332763671875-0.174560546875q0.85693359375,0,1.17431640625,0.03173828125t0.634765625,0.76171875q0.25390625,0.72998046875-0.618896484375,1.11083984375t-2.0947265625,0.5712890625t-2.427978515625,0.28564453125t-1.4599609375,0.09521484375q-0.380859375,5.458984375-0.777587890625,10.82275390625t-0.396728515625,10.88623046875q0,2.4755859375,0.15869140625,5.10986328125t0.888671875,4.98291015625q0.1904296875,0.72998046875,0.634765625,1.36474609375t0.4443359375,1.36474609375q0,0.4443359375-0.34912109375,0.6982421875t-0.841064453125,0.428466796875t-0.98388671875,0.206298828125t-0.809326171875,0.03173828125q-1.99951171875,0-3.046875-1.49169921875t-1.507568359375-3.570556640625t-0.491943359375-4.268798828125t-0.03173828125-3.5546875q0-2.79296875,0.111083984375-5.712890625t0.269775390625-5.7763671875t0.4443359375-5.5859375t0.66650390625-5.078125q-1.11083984375,0.126953125-2.174072265625,0.28564453125t-2.174072265625,0.15869140625q-0.25390625,0-0.682373046875-0.03173828125t-0.809326171875-0.15869140625t-0.650634765625-0.34912109375t-0.269775390625-0.634765625z M262.89819335937,112.47314453125q0-1.30126953125,0.76171875-2.237548828125t1.856689453125-1.5234375t2.396240234375-0.872802734375t2.412109375-0.28564453125q0.85693359375,0,2.28515625,0.25390625t2.79296875,0.76171875t2.364501953125,1.3330078125t0.999755859375,1.93603515625q0,0.5078125-0.380859375,0.904541015625t-0.79345703125,0.396728515625q-0.85693359375,0-1.55517578125-0.555419921875t-1.444091796875-1.17431640625t-1.634521484375-1.17431640625t-1.99951171875-0.555419921875t-2.015380859375,0.714111328125t-0.904541015625,1.888427734375q0,1.93603515625,1.36474609375,3.792724609375t2.999267578125,3.90380859375t2.999267578125,4.300537109375t1.36474609375,4.98291015625q0,1.17431640625-0.491943359375,1.983642578125t-1.30126953125,1.317138671875t-1.824951171875,0.777587890625t-1.9677734375,0.269775390625q-1.04736328125,0-2.44384765625-0.491943359375t-2.63427734375-1.30126953125t-2.078857421875-1.888427734375t-0.841064453125-2.25341796875q0-0.5712890625,0.809326171875-0.72998046875t1.190185546875-0.15869140625q0.1904296875,0,0.587158203125,0.126953125t0.777587890625,0.28564453125t0.682373046875,0.34912109375t0.238037109375,0.41259765625q0.3173828125,0.380859375,0.968017578125,1.126708984375t1.30126953125,1.2060546875t1.142578125,0.333251953125t0.491943359375-1.42822265625q0-2.4755859375-1.3330078125-4.554443359375t-2.904052734375-4.0625t-2.904052734375-3.935546875t-1.3330078125-4.173583984375z M285.26320800781,111.42578125q0-2.2216796875,0.206298828125-5.7763671875t0.491943359375-7.33154296875t0.714111328125-7.156982421875t0.936279296875-5.189208984375q0.1904296875-0.79345703125,0.904541015625-0.9521484375t1.444091796875-0.15869140625q0.98388671875,0,1.697998046875,0.34912109375t0.714111328125,1.5234375q0,5.7763671875-0.714111328125,11.568603515625t-0.777587890625,11.568603515625q0.98388671875-1.49169921875,2.5390625-2.237548828125t3.30078125-0.745849609375q2.412109375,0,4.15771484375,0.98388671875t2.82470703125,2.5390625t1.602783203125,3.602294921875t0.523681640625,4.173583984375q0,1.17431640625-0.238037109375,2.935791015625t-0.714111328125,3.71337890625t-1.2060546875,3.8720703125t-1.729736328125,3.443603515625t-2.301025390625,2.459716796875t-2.8564453125,0.936279296875q-0.3173828125,0-0.841064453125-0.09521484375t-1.04736328125-0.28564453125t-0.872802734375-0.491943359375t-0.34912109375-0.745849609375q0-0.5078125,0.618896484375-0.714111328125t0.999755859375-0.206298828125q1.42822265625-0.634765625,2.5390625-2.650146484375t1.856689453125-4.427490234375t1.126708984375-4.776611328125t0.380859375-3.856201171875q0-0.85693359375-0.25390625-2.28515625t-0.777587890625-2.82470703125t-1.42822265625-2.412109375t-2.142333984375-1.015625q-1.49169921875,0-2.38037109375,1.539306640625t-1.396484375,3.58642578125t-0.682373046875,4.22119140625t-0.174560546875,3.411865234375q0,0.79345703125,0.269775390625,1.571044921875t0.618896484375,1.55517578125t0.618896484375,1.5869140625t0.269775390625,1.602783203125q0,0.380859375-0.333251953125,0.634765625t-0.777587890625,0.41259765625t-0.936279296875,0.206298828125t-0.745849609375,0.047607421875q-1.80908203125,0-2.50732421875-0.85693359375t-1.2060546875-2.412109375q-1.11083984375-3.52294921875-1.539306640625-7.156982421875t-0.428466796875-7.283935546875z M311.69072265625,121.2646484375q0-1.80908203125,0.460205078125-3.729248046875t1.4599609375-3.45947265625t2.523193359375-2.50732421875t3.681640625-0.968017578125q1.61865234375,0,3.411865234375,0.555419921875t3.284912109375,1.5869140625t2.427978515625,2.523193359375t0.936279296875,3.33251953125q0,2.2216796875-0.809326171875,4.22119140625t-2.269287109375,3.570556640625t-3.411865234375,2.4755859375t-4.237060546875,0.904541015625q-1.87255859375,0-3.26904296875-0.682373046875t-2.332763671875-1.824951171875t-1.396484375-2.69775390625t-0.460205078125-3.30078125z M316.35625,121.201171875q0,0.5712890625,0.174560546875,1.68212890625t0.523681640625,2.174072265625t0.904541015625,1.8408203125t1.348876953125,0.714111328125q1.68212890625-0.1904296875,2.777099609375-1.094970703125t1.77734375-2.205810546875t0.9521484375-2.82470703125t0.269775390625-2.88818359375q0-1.74560546875-0.682373046875-2.919921875t-2.237548828125-1.904296875q0,0.0634765625,0.0634765625,0.0634765625t0.0634765625-0.0634765625l-0.79345703125-0.1904296875q-0.3173828125-0.126953125-0.777587890625-0.28564453125t-0.904541015625-0.6982421875q-1.23779296875,0.4443359375-1.920166015625,1.142578125t-1.031494140625,1.697998046875t-0.428466796875,2.396240234375t-0.079345703125,3.3642578125z M335.10310058594,121.2646484375q0-1.80908203125,0.460205078125-3.729248046875t1.4599609375-3.45947265625t2.523193359375-2.50732421875t3.681640625-0.968017578125q1.61865234375,0,3.411865234375,0.555419921875t3.284912109375,1.5869140625t2.427978515625,2.523193359375t0.936279296875,3.33251953125q0,2.2216796875-0.809326171875,4.22119140625t-2.269287109375,3.570556640625t-3.411865234375,2.4755859375t-4.237060546875,0.904541015625q-1.87255859375,0-3.26904296875-0.682373046875t-2.332763671875-1.824951171875t-1.396484375-2.69775390625t-0.460205078125-3.30078125z M339.76862792969,121.201171875q0,0.5712890625,0.174560546875,1.68212890625t0.523681640625,2.174072265625t0.904541015625,1.8408203125t1.348876953125,0.714111328125q1.68212890625-0.1904296875,2.777099609375-1.094970703125t1.77734375-2.205810546875t0.9521484375-2.82470703125t0.269775390625-2.88818359375q0-1.74560546875-0.682373046875-2.919921875t-2.237548828125-1.904296875q0,0.0634765625,0.0634765625,0.0634765625t0.0634765625-0.0634765625l-0.79345703125-0.1904296875q-0.3173828125-0.126953125-0.777587890625-0.28564453125t-0.904541015625-0.6982421875q-1.23779296875,0.4443359375-1.920166015625,1.142578125t-1.031494140625,1.697998046875t-0.428466796875,2.396240234375t-0.079345703125,3.3642578125z M359.15024414063,133.54736328125l0.66650390625-0.79345703125q-0.126953125-5.33203125-0.28564453125-10.63232421875t-0.15869140625-10.537109375q0-6.50634765625,0.777587890625-12.584228515625t1.539306640625-12.457275390625q0.0634765625-0.380859375,0.364990234375-0.618896484375t0.745849609375-0.396728515625t0.904541015625-0.22216796875t0.841064453125-0.0634765625q0.5078125,0,1.26953125,0.1904296875t1.5234375,1.11083984375q0,0.3173828125,0.047607421875,0.555419921875t0.047607421875,0.555419921875q0,2.412109375-0.650634765625,5.17333984375t-0.872802734375,5.30029296875q-0.25390625,3.1103515625-0.34912109375,6.1572265625t-0.09521484375,6.18896484375l0.0634765625,2.79296875q0.634765625-0.79345703125,1.80908203125-2.03125t2.5390625-2.396240234375t2.7294921875-1.983642578125t2.4755859375-0.8251953125q1.68212890625,0,2.332763671875,0.9521484375t0.650634765625,2.50732421875q0,1.42822265625-0.618896484375,2.9833984375t-1.61865234375,3.031005859375t-2.269287109375,2.650146484375t-2.50732421875,1.74560546875q1.68212890625,2.0947265625,3.443603515625,3.9990234375t3.856201171875,3.58642578125l0,0.72998046875q-0.0634765625,0.3173828125-0.396728515625,0.47607421875t-0.72998046875,0.25390625t-0.777587890625,0.142822265625t-0.634765625,0.047607421875q-1.55517578125,0-2.999267578125-0.92041015625t-2.69775390625-2.25341796875t-2.364501953125-2.82470703125t-2.03125-2.6025390625q0.1904296875,3.64990234375,0.428466796875,7.283935546875t0.238037109375,7.283935546875q0,0.4443359375-0.396728515625,0.745849609375t-0.92041015625,0.460205078125t-1.063232421875,0.22216796875t-0.888671875,0.0634765625q-1.87255859375,0-2.650146484375-0.682373046875t-1.317138671875-2.364501953125z M365.65659179688,118.5986328125q0.79345703125,0,1.888427734375-0.682373046875t2.269287109375-1.697998046875t2.18994140625-2.142333984375t1.634521484375-2.142333984375t0.618896484375-1.634521484375t-0.85693359375-0.555419921875q-0.3173828125,0-1.30126953125,0.92041015625t-2.18994140625,2.25341796875t-2.412109375,2.88818359375t-1.8408203125,2.79296875z"/><path fill="#" d=""/></svg>
